# xmcd CD database file
# Copyright (C) 1997 Ti Kan
#
# Track frame offsets:
#  150
#  11643
#  23510
#  39130
#  49225
#  59610
#  74528
#  87250
#  100653
#  112015
#  127160
#  139248
#  151543
#  165830
#  179847
#  194458
#
# Disc length: 2781 seconds
#
# Revision: 1
# Processed by: cddbd v1.4b41PL1 Copyright (c) Steve Scherf et al.
# Submitted via: CDWizzard Release:4.32
#
DISCID=d60adb10
DTITLE=The Kendalls - 16 Greastest Hits
DYEAR=1900
DGENRE=
TTITLE0=Heaven's Just a Sin Away
TTITLE1=Sweet Desire
TTITLE2=Just Like Real People
TTITLE3=You'd Make an Angel Want to Cheat
TTITLE4=I Had a Lovely Time
TTITLE5=Makin' Believe
TTITLE6=Heart of the Matter
TTITLE7=Pittsburgh Stealers
TTITLE8=It Don't Feel Like Sinnin' To Me
TTITLE9=Never My Love
TTITLE10=I'm Already Blue
TTITLE11=Put it Off Until Tomorrow
TTITLE12=I Can't Tell My Heart
TTITLE13=Old Fashioned Love
TTITLE14=Leaving on a Jet Plane
TTITLE15=You Lost That Lovin' Feeling
EXTD=
EXTT0=
EXTT1=
EXTT2=
EXTT3=
EXTT4=
EXTT5=
EXTT6=
EXTT7=
EXTT8=
EXTT9=
EXTT10=
EXTT11=
EXTT12=
EXTT13=
EXTT14=
EXTT15=
PLAYORDER=
